<svg xmlns="http://www.w3.org/2000/svg" viewBox="0 0 24 24"><path d="M22.1 20.4c1.2-1.1 1.9-2.5 1.9-4.1 0-3.2-2.9-6-6.4-6.4.2-.7.4-1.4.4-2.1C18 3.7 14 .3 9.1.3 4 .3 0 3.6 0 7.7c0 1.9.9 3.7 2.3 5 0 0 .1 0 .1.1L.5 16c-.1.2-.1.4.1.6.1.1.2.2.4.2h.2l4.8-2c.1 0 .2.1.3.1.9.2 1.7.3 2.7.3h.1c-.1.4-.1.7-.1 1 0 2.1 1.2 4.1 3.1 5.4 2.1 1.3 4.6 1.6 6.9.6l3.8 1.4h.2c.1 0 .3-.1.4-.2.1-.2.2-.4.1-.6l-1.4-2.4zM9 14.2c-.8 0-1.6-.1-2.3-.3-.3-.1-.5-.1-.7-.2l-1.6.6-2.2.9.7-1.2v-.1l.8-1.5c-.4-.3-.8-.6-1.1-.9-1-1-1.6-2.3-1.6-3.8 0-3.5 3.6-6.4 8-6.4s7.9 2.9 7.9 6.5c0 .7-.1 1.4-.4 2-3.2 0-6.1 1.9-7.1 4.5-.2-.1-.3-.1-.4-.1zm10.2 7.1h-.4c-2 .9-4.3.7-6.2-.5C11 19.7 10 18 10 16.2c0-3 3-5.5 6.5-5.5s6.5 2.5 6.5 5.5c0 1.4-.6 2.6-1.8 3.6-.2.2-.3.5-.2.7l.9 1.9-2.7-1.1z"/></svg>