<svg xmlns="http://www.w3.org/2000/svg" viewBox="0 0 24 24"><path d="M22 6.3c0-.1-.1-.1-.1-.2l-6-6s-.1-.1-.2-.1H2.5c-.3 0-.5.2-.5.5v23c0 .3.2.5.5.5h19c.3 0 .5-.2.5-.5V6.3zm-6-4.6L20.3 6H16V1.7zM3 23V1h12v5.5c0 .3.2.5.5.5H21v16H3z"/><path d="M12.5 13h-1c-.3 0-.5.2-.5.5v5c0 .3.2.5.5.5h1c1.4 0 2.5-1.3 2.5-3s-1.1-3-2.5-3zm0 5H12v-4h.5c.9 0 1.5.8 1.5 2s-.6 2-1.5 2zm6.5-5h-2.5c-.3 0-.5.2-.5.5v5c0 .3.2.5.5.5s.5-.2.5-.5V16h1c.3 0 .5-.2.5-.5s-.2-.5-.5-.5h-1v-1h2c.3 0 .5-.2.5-.5s-.2-.5-.5-.5zM7.8 13H6.5c-.3 0-.5.2-.5.5v5c0 .3.2.5.5.5s.5-.2.5-.5v-2h.8c1 0 1.8-.8 1.8-1.8S8.7 13 7.8 13zm0 2.5H7V14h.8c.4 0 .8.3.8.8s-.4.7-.8.7z"/></svg>