<svg xmlns="http://www.w3.org/2000/svg" viewBox="0 0 24 24"><path d="M22 6.3c0-.1-.1-.1-.1-.2l-6-6s-.1-.1-.2-.1H2.5c-.3 0-.5.2-.5.5v23c0 .3.2.5.5.5h19c.3 0 .5-.2.5-.5V6.3zm-6-4.6L20.3 6H16V1.7zM3 23V1h12v5.5c0 .3.2.5.5.5H21v16H3z"/><path d="M16.9 14c.3 0 .6.1.8.8.1.3.3.4.6.4.3-.1.4-.3.4-.6-.3-1.4-1.1-1.6-1.8-1.6-1.9 0-1.9 2-1.9 3s0 3 1.9 3c.7 0 1.5-.3 1.8-1.6.1-.3-.1-.5-.4-.6-.3-.1-.5.1-.6.4-.2.8-.5.8-.8.8-.5 0-.9-.1-.9-2s.4-2 .9-2zM12 13c-2 0-2 2.1-2 3 0 .9 0 3 2 3s2-2.1 2-3c0-.9 0-3-2-3zm0 5c-.5 0-1-.1-1-2s.5-2 1-2 1 .1 1 2-.5 2-1 2zm-5.5-5h-1c-.3 0-.5.2-.5.5v5c0 .3.2.5.5.5h1C7.9 19 9 17.7 9 16s-1.1-3-2.5-3zm0 5H6v-4h.5c.9 0 1.5.8 1.5 2s-.6 2-1.5 2z"/></svg>