<svg xmlns="http://www.w3.org/2000/svg" viewBox="0 0 24 24"><path d="M18.5 13h-2c-.3 0-.5.2-.5.5s.2.5.5.5h.5v4.5c0 .3.2.5.5.5s.5-.2.5-.5V14h.5c.3 0 .5-.2.5-.5s-.2-.5-.5-.5z"/><path d="M22 6.3c0-.1-.1-.1-.1-.2l-6-6s-.1-.1-.2-.1H2.5c-.3 0-.5.2-.5.5v23c0 .3.2.5.5.5h19c.3 0 .5-.2.5-.5V6.3zm-6-4.6L20.3 6H16V1.7zM3 23V1h12v5.5c0 .3.2.5.5.5H21v16H3z"/><path d="M7.8 13H6.5c-.3 0-.5.2-.5.5v5c0 .3.2.5.5.5s.5-.2.5-.5v-2h.8c1 0 1.8-.8 1.8-1.8S8.7 13 7.8 13zm0 2.5H7V14h.8c.4 0 .8.3.8.8s-.4.7-.8.7zm5-2.5h-1.2c-.3 0-.5.2-.5.5v5c0 .3.2.5.5.5s.5-.2.5-.5v-2h.8c1 0 1.8-.8 1.8-1.8s-1-1.7-1.9-1.7zm0 2.5H12V14h.8c.4 0 .8.3.8.8s-.4.7-.8.7z"/></svg>