<svg xmlns="http://www.w3.org/2000/svg" viewBox="0 0 24 24"><path d="M22 6.3c0-.1-.1-.1-.1-.2l-6-6s-.1-.1-.2-.1H2.5c-.3 0-.5.2-.5.5v23c0 .3.2.5.5.5h19c.3 0 .5-.2.5-.5V6.3zm-6-4.6L20.3 6H16V1.7zM3 23V1h12v5.5c0 .3.2.5.5.5H21v16H3z"/><path d="M14 18h-2v-4.5c0-.3-.2-.5-.5-.5s-.5.2-.5.5v5c0 .3.2.5.5.5H14c.3 0 .5-.2.5-.5s-.2-.5-.5-.5zm3.6-2.5h-.2c-.5-.1-.7-.2-.7-.7 0-.5.3-.8.7-.8.4 0 .7.3.7.8 0 .3.2.5.5.5s.5-.3.5-.5c-.1-1-.8-1.7-1.7-1.7-1 0-1.7.8-1.7 1.8 0 .9.5 1.5 1.6 1.7h.2c.5.1.7.2.7.7 0 .5-.3.8-.7.8-.4 0-.7-.3-.7-.8 0-.3-.2-.5-.5-.5s-.5.3-.5.5c.1 1 .8 1.7 1.7 1.7 1 0 1.7-.8 1.7-1.8 0-.9-.5-1.5-1.6-1.7zm-8.8-2.4c-.2-.1-.5-.1-.7.2L7 15l-1.1-1.8c-.1-.2-.4-.3-.7-.2-.2.1-.3.4-.2.7L6.4 16l-1.3 2.2c-.1.2-.1.5.2.7 0 .1.1.1.2.1.2 0 .3-.1.4-.2L7 17l1.1 1.8c.1.1.2.2.4.2.1 0 .2 0 .3-.1.2-.1.3-.4.2-.7L7.6 16l1.3-2.2c.2-.3.1-.6-.1-.7z"/></svg>