<svg xmlns="http://www.w3.org/2000/svg" viewBox="0 0 24 24"><path d="M11.642 15.521c-.04-.013-.099-.024-.172-.039-.482-.09-.712-.211-.712-.656 0-.456.333-.826.742-.826.389 0 .714.338.739.77.017.275.254.5.528.471a.502.502 0 0 0 .469-.528C13.182 13.751 12.417 13 11.5 13c-.961 0-1.742.818-1.742 1.825 0 .897.515 1.45 1.604 1.655.038.012.094.021.163.035.484.088.715.209.715.657 0 .456-.332.827-.74.827-.39 0-.716-.339-.741-.771a.5.5 0 0 0-.998.058c.056.962.82 1.714 1.739 1.714.96 0 1.74-.818 1.74-1.826 0-.904-.515-1.456-1.598-1.653zM6.91 13.999c.303 0 .641.065.808.847a.501.501 0 0 0 .979-.212c-.291-1.352-1.132-1.635-1.786-1.635C5 12.999 5 15.025 5 16s0 3 1.91 3c.654 0 1.495-.283 1.786-1.635a.503.503 0 0 0-.384-.596.508.508 0 0 0-.595.385c-.166.782-.504.846-.807.846-.515 0-.91-.146-.91-2s.395-2.001.91-2.001zm11.235-.978a.5.5 0 0 0-.623.334L16.5 16.76l-1.021-3.402a.499.499 0 1 0-.957.287l1.5 5a.499.499 0 0 0 .957 0l1.5-5a.502.502 0 0 0-.334-.624z"/><path d="M21.961 6.308a.508.508 0 0 0-.107-.162L15.856.147A.531.531 0 0 0 15.5 0h-13a.5.5 0 0 0-.5.5v23a.5.5 0 0 0 .5.5h19c.275 0 .5-.225.5-.5v-17a.503.503 0 0 0-.039-.192zM16 1.707L20.293 6H16V1.707zM3 23V1h12v5.5a.5.5 0 0 0 .5.5H21v16H3z"/></svg>