<svg xmlns="http://www.w3.org/2000/svg" viewBox="0 0 24 24"><path d="M23.1 17.2l-2.6-2.6c-.6-.6-1.3-.9-2.1-.9s-1.5.3-2.1.9l-.5.5c-2.5-2.1-5-4.6-7.1-7.1l.5-.5c1.1-1.1 1.1-3 0-4.2L6.8.8C5.7-.3 3.8-.3 2.6.8L1.2 2.3C-.2 3.7-.4 5.9.7 7.5c4.1 6.2 9.6 11.7 15.8 15.8.7.5 1.5.7 2.3.7 1.1 0 2.1-.4 2.9-1.2l1.4-1.4c.6-.6.9-1.3.9-2.1s-.3-1.5-.9-2.1zm-.7 3.4L21 22c-1 1-2.7 1.2-3.9.4C11 18.4 5.6 13 1.6 6.9.7 5.7.9 4 1.9 3l1.4-1.4c.4-.4.9-.6 1.4-.6s1 .2 1.3.6l2.6 2.6c.7.7.7 1.9 0 2.7l-.9.8c-.2.2-.2.5 0 .7 2.3 2.8 5.1 5.6 7.9 7.9.2.2.5.2.7 0l.9-.9c.4-.4.8-.6 1.3-.6s1 .2 1.3.6l2.6 2.6c.4.4.6.8.6 1.3s-.2 1-.6 1.3z"/></svg>