<svg xmlns="http://www.w3.org/2000/svg" viewBox="0 0 24 24"><path d="M21.5 7H19V4.3c0-.1-.1-.1-.1-.2l-3-3s-.1-.1-.2-.1H5.5c-.3 0-.5.2-.5.5V7H2.5C1.1 7 0 8.1 0 9.5v6C0 16.9 1.1 18 2.5 18H5v4.5c0 .3.2.5.5.5h13c.3 0 .5-.2.5-.5V18h2.5c1.4 0 2.5-1.1 2.5-2.5v-6C24 8.1 22.9 7 21.5 7zM16 2.7L17.3 4H16V2.7zM6 2h9v2.5c0 .3.2.5.5.5H18v2H6V2zm12 20H6v-7h12v7zm5-6.5c0 .8-.7 1.5-1.5 1.5H19v-2.5c0-.3-.2-.5-.5-.5h-13c-.3 0-.5.2-.5.5V17H2.5c-.8 0-1.5-.7-1.5-1.5v-6C1 8.7 1.7 8 2.5 8h19c.8 0 1.5.7 1.5 1.5v6z"/></svg>