<svg xmlns="http://www.w3.org/2000/svg" viewBox="0 0 24 24"><path d="M22.7 24H1.3c-.3 0-.5-.2-.5-.5v-2.1c0-1.6 1-3.1 2.6-3.6l5.3-1.9v-2.5C7 12 5.9 9.7 5.9 7.2 5.9 3.2 8.6 0 12 0s6.1 3.2 6.1 7.2c0 2.5-1.1 4.8-2.8 6.1v2.5l5.3 1.9c1.5.5 2.6 2 2.6 3.6v2.1c0 .4-.3.6-.5.6zM1.8 23h20.3v-1.6c0-1.2-.8-2.3-1.9-2.7l-5.6-2c-.2-.1-.3-.3-.3-.5v-3.1c0-.2.1-.4.2-.5 1.6-1.1 2.6-3.2 2.6-5.4C17.1 3.8 14.8 1 12 1S6.9 3.8 6.9 7.2c0 2.2 1 4.3 2.6 5.4.2.1.2.3.2.5v3.1c0 .2-.1.4-.3.5l-5.6 2c-1.1.4-1.9 1.5-1.9 2.7V23z"/></svg>